# xmcd
#
# Track frame offsets: 
#        150
#        11996
#        23724
#        35567
#        48161
#        61248
#        71490
#        83672
#        95546
#        109409
#        120351
#        134910
#        146273
#        156715
#        169635
#        181308
#        191837
#        206321
#        217194
#        227655
#
# Disc length: 3197 seconds
#
# Revision: 0
# Processed by: cddbd v1.5.2PL0 Copyright (c) Steve Scherf et al.
# Submitted via: ExactAudioCopy v0.95a4
#
DISCID=210c7b14
DTITLE=Freddy King - Freddy King Blues 20 Hits
DYEAR=1900
DGENRE=Blues
TTITLE0=I'm Tore Down
TTITLE1=Hide Away
TTITLE2=San-ho-zay
TTITLE3=Lonesome Whistle Blues
TTITLE4=Nickel Plated
TTITLE5=See See Baby
TTITLE6=Turns Its Back On You
TTITLE7=Out Front
TTITLE8=Now I've Got A Woman
TTITLE9=Surf Monkey
TTITLE10=You've Got To Love Her With Feeling
TTITLE11=Just Pickin
TTITLE12=Man Hole
TTITLE13=Sen-sa-shun
TTITLE14=It Hurts To Be In Love
TTITLE15=Sad Night Owl
TTITLE16=The Stumble
TTITLE17=Texas Oil
TTITLE18=Swooshy
TTITLE19=You Mean, Mean Woman
EXTD=
EXTT0=
EXTT1=
EXTT2=
EXTT3=
EXTT4=
EXTT5=
EXTT6=
EXTT7=
EXTT8=
EXTT9=
EXTT10=
EXTT11=
EXTT12=
EXTT13=
EXTT14=
EXTT15=
EXTT16=
EXTT17=
EXTT18=
EXTT19=
PLAYORDER=
